<?xml version="1.0" standalone="no"?>
<!DOCTYPE svg PUBLIC "-//W3C//DTD SVG 20010904//EN"
 "http://www.w3.org/TR/2001/REC-SVG-20010904/DTD/svg10.dtd">
<svg version="1.0" xmlns="http://www.w3.org/2000/svg"
 width="2000.000000pt" height="2000.000000pt" viewBox="0 0 2000.000000 2000.000000"
 preserveAspectRatio="xMidYMid meet">
<metadata>
Created by potrace 1.14, written by Peter Selinger 2001-2017
</metadata>
<g transform="translate(0.000000,2000.000000) scale(0.100000,-0.100000)"
fill="#000000" stroke="none">
<path d="M2425 19833 c-570 -47 -1098 -286 -1509 -683 -408 -394 -650 -872
-738 -1455 -20 -134 -20 -15256 0 -15390 86 -574 323 -1049 719 -1438 383
-378 848 -605 1408 -689 134 -20 15256 -20 15390 0 574 86 1049 323 1438 719
378 383 605 848 689 1408 20 134 20 15256 0 15390 -83 552 -299 1001 -665
1382 -390 405 -833 636 -1423 740 -94 17 -500 18 -7684 19 -4172 0 -7603 -1
-7625 -3z m7385 -1313 l0 -950 -4635 0 -4635 0 6 48 c57 469 273 912 605 1242
349 347 810 559 1299 599 58 4 1737 9 3733 10 l3627 1 0 -950z m7825 931 c260
-40 457 -100 662 -200 235 -116 392 -230 578 -422 317 -327 507 -716 570
-1171 l12 -88 -4634 0 -4633 0 0 950 0 950 3683 -3 c2874 -2 3700 -6 3762 -16z
m-13725 -3991 l0 -1730 -1690 0 -1690 0 0 1730 0 1730 1690 0 1690 0 0 -1730z
m5900 690 l0 -1040 -1888 0 -1888 0 -52 -26 c-37 -19 -59 -38 -77 -68 l-25
-43 0 -974 c0 -575 -4 -1021 -10 -1089 -75 -848 -703 -1509 -1542 -1625 l-48
-6 0 2955 0 2956 2765 0 2765 0 0 -1040z m9660 0 l0 -1040 -1798 0 -1798 0
-52 -26 c-37 -19 -59 -38 -77 -68 l-25 -43 0 -429 c0 -236 -5 -482 -10 -547
-52 -631 -419 -1176 -983 -1459 -159 -80 -417 -158 -562 -170 l-40 -3 -5 1311
-5 1310 -27 41 c-43 65 -82 78 -223 77 -584 -7 -1188 -299 -1576 -763 -249
-297 -407 -635 -480 -1031 -20 -108 -22 -161 -29 -840 -8 -768 -7 -755 -60
-960 -110 -431 -425 -846 -816 -1076 -200 -118 -438 -200 -661 -229 l-53 -7 0
3496 0 3496 4640 0 4640 0 0 -1040z m-9660 -5367 c0 -3809 1 -3949 19 -3988
22 -50 69 -91 119 -105 24 -6 348 -10 935 -10 l897 0 0 -1935 0 -1935 -3265 0
-3265 0 0 1040 0 1040 1405 0 c1246 0 1410 2 1443 15 47 20 79 50 103 97 19
36 19 139 19 4883 l0 4845 795 0 795 0 0 -3947z m7870 -2013 l0 -5960 -1780 0
-1780 0 2 1533 3 1532 605 5 c333 3 616 10 630 14 14 4 54 17 90 28 252 80
467 278 570 525 102 245 91 532 -29 771 -120 238 -339 415 -603 484 -80 21
-104 22 -676 25 l-592 4 2 2127 3 2127 70 8 c376 40 795 219 1103 469 352 287
616 699 726 1136 55 215 59 259 63 710 l5 422 794 0 794 0 0 -5960z m1790 0
l0 -5960 -705 0 -705 0 0 5960 0 5960 705 0 705 0 0 -5960z m-5720 -5 l0
-5955 -795 0 -795 0 -2 3043 -3 3043 -27 41 c-15 22 -44 51 -65 64 l-38 24
-917 3 -918 2 0 393 0 393 118 18 c427 63 796 235 1129 527 332 290 588 737
678 1182 38 191 45 338 45 965 0 640 4 693 60 907 141 533 536 981 1045 1184
150 60 367 116 463 120 l22 1 0 -5955z m-11810 433 c0 -4008 1 -4154 19 -4193
22 -50 69 -91 119 -105 25 -6 498 -10 1415 -10 l1377 0 0 -1040 0 -1040 -2170
0 -2170 0 0 5270 0 5270 705 0 705 0 0 -4152z m1970 2572 l0 -1580 -795 0
-795 0 0 1580 0 1580 795 0 795 0 0 -1580z m0 -2659 c0 -756 1 -781 55 -946
132 -404 475 -709 892 -792 116 -23 348 -23 451 1 462 103 793 422 914 879 21
80 22 100 25 820 l4 737 794 0 795 0 0 -2270 0 -2270 -2760 0 -2760 0 0 2270
0 2270 795 0 795 0 0 -699z m1960 2 c0 -586 -3 -708 -15 -763 -89 -382 -428
-639 -815 -617 -125 8 -197 26 -305 76 -158 74 -293 211 -371 376 -75 160 -74
146 -74 929 l0 696 790 0 790 0 0 -697z m5910 -1258 l0 -795 -795 0 -795 0 0
795 0 795 795 0 795 0 0 -795z m3574 -537 c165 -64 285 -191 336 -357 24 -77
27 -220 5 -301 -48 -182 -186 -324 -375 -386 -50 -17 -108 -19 -622 -22 l-568
-3 0 551 0 551 578 -3 577 -3 69 -27z m-5544 -5838 l0 -950 -3682 3 c-2875 2
-3701 6 -3763 16 -417 64 -762 211 -1055 448 -163 132 -348 342 -459 521 -166
266 -255 523 -304 875 l-6 37 4635 0 4634 0 0 -950z m9644 898 c-79 -664 -477
-1258 -1059 -1582 -205 -114 -452 -199 -705 -243 -100 -17 -289 -18 -3802 -20
l-3698 -3 0 950 0 950 4635 0 4636 0 -7 -52z"/>
</g>
</svg>
