<?xml version="1.0" standalone="no"?>
<!DOCTYPE svg PUBLIC "-//W3C//DTD SVG 20010904//EN"
 "http://www.w3.org/TR/2001/REC-SVG-20010904/DTD/svg10.dtd">
<svg version="1.0" xmlns="http://www.w3.org/2000/svg"
 width="1080.000000pt" height="1080.000000pt" viewBox="0 0 1080.000000 1080.000000"
 preserveAspectRatio="xMidYMid meet">
<metadata>
Created by potrace 1.14, written by Peter Selinger 2001-2017
</metadata>
<g transform="translate(0.000000,1080.000000) scale(0.100000,-0.100000)"
fill="#000000" stroke="none">
<path d="M3756 8923 c-1 -1 -62 -3 -135 -4 -100 -1 -131 -4 -128 -13 3 -7 -1
-13 -8 -13 -7 0 -11 6 -9 12 3 8 -5 11 -22 11 -15 -1 -29 -8 -32 -16 -2 -9 0
-11 5 -5 12 15 33 17 33 2 0 -9 -24 -13 -95 -12 -52 0 -95 -4 -95 -8 0 -5 -6
-5 -12 -1 -9 5 -9 2 1 -9 8 -10 9 -17 3 -17 -6 0 -14 5 -17 10 -3 6 -12 10
-18 9 -9 0 -9 -2 1 -6 26 -10 10 -20 -30 -18 -55 1 -94 -9 -90 -25 1 -6 -3
-10 -10 -7 -7 2 -12 10 -10 16 1 7 -2 9 -8 6 -6 -4 -9 -13 -6 -21 4 -11 -1
-13 -19 -10 -14 3 -25 0 -25 -5 0 -6 -8 -6 -20 1 -15 8 -20 8 -20 -1 0 -6 -7
-9 -15 -6 -8 4 -17 1 -21 -5 -4 -6 -3 -8 4 -4 6 3 13 2 17 -4 7 -11 3 -12 -60
-14 -22 -1 -39 -6 -37 -11 2 -6 11 -9 20 -7 14 2 15 1 2 -7 -8 -5 -17 -8 -21
-5 -4 2 -10 0 -13 -5 -3 -5 -22 -7 -41 -5 -29 2 -35 0 -33 -14 2 -12 -5 -18
-27 -20 -51 -5 -61 -11 -41 -25 14 -11 13 -12 -10 -14 -15 0 -30 -7 -35 -15
-6 -10 -9 -10 -9 0 0 6 -9 12 -19 12 -14 0 -18 -5 -14 -20 4 -15 0 -20 -16
-20 -18 0 -25 -10 -23 -31 1 -4 -4 -6 -11 -6 -56 2 -69 -3 -64 -24 5 -18 2
-20 -19 -16 -13 2 -24 0 -24 -5 0 -5 -6 -6 -12 -2 -10 6 -10 4 0 -8 9 -11 10
-18 2 -23 -5 -3 -10 0 -10 7 0 11 -2 11 -9 0 -4 -7 -17 -14 -29 -15 -16 -1
-18 -4 -11 -14 8 -9 4 -14 -14 -18 -14 -4 -27 -15 -30 -26 -3 -11 -11 -18 -19
-17 -7 2 -12 -5 -12 -15 1 -11 -7 -19 -23 -23 -15 -4 -22 -12 -19 -20 3 -8 -1
-14 -8 -14 -7 0 -19 -7 -26 -15 -9 -10 -9 -15 -1 -15 6 0 11 5 11 10 0 6 4 10
10 10 5 0 7 -7 4 -15 -4 -8 -14 -15 -24 -15 -13 0 -17 -5 -13 -20 3 -12 2 -20
-3 -19 -24 4 -34 -3 -34 -25 0 -16 -5 -23 -17 -22 -11 1 -17 -9 -20 -34 -4
-33 -19 -53 -33 -45 -4 2 -6 -14 -6 -35 1 -39 -3 -44 -34 -41 -13 2 -13 1 0
-8 8 -5 17 -8 20 -6 4 2 7 -2 7 -11 0 -9 -7 -12 -19 -8 -21 6 -24 -6 -6 -24 8
-8 8 -12 1 -12 -6 0 -11 -17 -11 -37 -2 -93 -5 -113 -13 -107 -5 3 -7 10 -4
15 4 5 -2 6 -11 2 -10 -4 -13 -8 -6 -11 8 -2 8 -11 1 -28 -13 -35 -12 -36 14
-29 21 7 21 6 3 -7 -10 -8 -16 -20 -12 -26 4 -7 3 -12 -2 -12 -6 0 -8 -9 -5
-20 3 -11 9 -20 14 -20 4 0 6 9 4 20 -2 11 0 20 4 20 4 0 8 -18 9 -41 1 -22
-2 -38 -6 -35 -5 3 -9 -1 -9 -9 0 -8 5 -13 10 -12 6 1 11 -18 11 -43 1 -25 5
-51 10 -59 7 -10 6 -12 -4 -6 -8 5 -11 3 -9 -4 3 -7 8 -12 13 -11 16 3 26 -24
26 -72 0 -38 4 -48 20 -53 11 -3 20 -15 20 -26 0 -10 6 -19 13 -19 9 0 9 -2
-1 -9 -8 -5 -12 -21 -10 -37 2 -18 -2 -29 -9 -30 -7 -1 -19 -2 -25 -3 -9 -1
-8 -4 2 -11 10 -6 11 -10 2 -10 -6 0 -11 -3 -11 -7 5 -28 -3 -43 -22 -43 -14
0 -19 -5 -16 -14 3 -8 -1 -22 -9 -33 -9 -10 -12 -12 -8 -4 4 9 2 12 -7 9 -8
-3 -14 -19 -15 -39 0 -24 -5 -35 -20 -39 -11 -3 -19 -14 -19 -25 0 -13 -6 -19
-18 -17 -10 2 -17 -3 -17 -12 0 -10 6 -13 15 -10 8 4 15 1 15 -6 0 -6 -4 -9
-9 -5 -12 7 -33 -29 -24 -39 6 -5 -12 -10 -29 -7 -5 0 -8 -6 -8 -14 0 -13 4
-14 23 -5 21 11 21 11 -2 -8 -16 -13 -24 -30 -24 -54 -1 -29 -4 -34 -19 -30
-15 3 -18 -2 -19 -29 -2 -57 -4 -62 -19 -66 -13 -4 -13 -3 0 6 13 9 13 11 -1
11 -11 0 -16 -11 -18 -37 -1 -21 -4 -49 -5 -63 -2 -14 -4 -33 -4 -42 -1 -10
-6 -18 -12 -18 -6 0 -6 9 0 25 6 15 6 25 0 25 -13 0 -19 -28 -21 -98 -1 -34
-5 -65 -9 -67 -4 -2 -6 7 -4 20 1 14 -2 23 -7 19 -5 -3 -9 -14 -9 -25 0 -11
-4 -18 -9 -15 -5 4 -7 -2 -4 -12 2 -11 -1 -19 -9 -20 -7 -1 -26 -4 -43 -6 -16
-2 -35 -4 -41 -5 -7 -1 -14 -10 -17 -21 -3 -13 -10 -18 -21 -14 -26 10 -66 -4
-60 -21 5 -11 -2 -15 -27 -15 -38 -1 -79 -24 -57 -33 12 -5 -34 -11 -59 -8 -7
1 -13 -7 -13 -19 0 -16 -7 -20 -32 -21 -18 -1 -36 -1 -40 0 -5 0 -8 -4 -8 -9
0 -6 6 -10 13 -10 22 0 -16 -20 -40 -20 -17 0 -20 -5 -16 -22 3 -14 1 -18 -4
-11 -6 8 -12 8 -25 -1 -10 -7 -14 -17 -11 -22 4 -5 1 -3 -7 4 -16 13 -31 16
-29 5 4 -26 -2 -34 -22 -28 -14 5 -19 4 -15 -4 4 -6 2 -19 -3 -28 -6 -10 -11
-14 -11 -9 0 5 -7 3 -15 -4 -12 -10 -15 -10 -15 0 0 7 -9 3 -20 -10 -11 -12
-17 -27 -14 -32 4 -6 -3 -5 -15 1 -18 10 -21 9 -22 -11 -1 -13 -1 -27 1 -33 1
-5 -4 -5 -11 2 -17 17 -38 5 -32 -18 4 -15 2 -18 -11 -13 -12 5 -19 0 -23 -15
-3 -12 -13 -21 -25 -21 -12 0 -18 -6 -16 -17 2 -12 -6 -19 -27 -24 -16 -4 -24
-7 -16 -8 11 -1 11 -4 1 -16 -7 -8 -16 -13 -20 -10 -4 3 -14 -3 -21 -12 -10
-11 -10 -14 -2 -9 9 5 11 2 7 -8 -3 -8 -12 -12 -20 -9 -8 3 -15 -1 -15 -11 -3
-37 -5 -41 -22 -38 -10 2 -17 -3 -17 -12 0 -8 -9 -18 -20 -21 -11 -4 -18 -9
-16 -13 2 -4 -2 -20 -10 -37 -7 -16 -12 -22 -11 -13 1 9 -2 18 -8 20 -5 2 -11
-14 -13 -34 -3 -30 -7 -38 -23 -38 -18 0 -26 -22 -19 -55 1 -5 -4 -4 -11 3 -7
6 -17 12 -21 12 -11 0 -6 -23 7 -32 6 -5 5 -8 -2 -8 -7 0 -13 -9 -13 -20 0
-13 -7 -20 -20 -20 -12 0 -20 -6 -19 -12 3 -27 -1 -58 -8 -57 -23 4 -31 -3
-28 -21 2 -12 -2 -23 -10 -27 -8 -3 -15 -9 -15 -15 0 -5 5 -6 12 -2 7 5 8 3 3
-6 -6 -10 -11 -9 -21 5 -12 16 -13 14 -9 -15 2 -18 0 -41 -5 -50 -6 -11 -5
-21 1 -27 7 -7 3 -9 -13 -6 -22 4 -23 1 -23 -46 1 -45 -2 -51 -20 -52 -17 -1
-16 -2 5 -9 16 -5 19 -8 8 -9 -10 -1 -21 -9 -26 -18 -10 -22 -8 -299 2 -332 6
-16 5 -21 -3 -17 -7 5 -8 1 -5 -9 4 -9 14 -15 23 -12 14 3 17 -4 17 -37 0 -31
4 -42 20 -46 10 -3 19 -13 20 -22 2 -49 5 -56 21 -54 10 0 18 -5 19 -11 1 -7
2 -19 3 -25 1 -9 4 -10 9 -2 5 7 14 5 27 -9 11 -11 13 -16 5 -12 -13 7 -13 6
-2 -7 7 -9 25 -15 43 -14 21 2 28 -2 25 -11 -3 -7 4 -17 14 -23 11 -6 20 -7
21 -3 0 4 4 -1 8 -12 8 -20 11 -21 55 -24 14 0 26 -8 28 -18 2 -10 13 -18 28
-19 83 -5 106 -10 117 -24 13 -17 26 -18 241 -20 123 -1 161 -4 156 -13 -5 -9
-3 -8 7 0 19 18 29 16 29 -7 0 -11 -3 -19 -7 -19 -23 4 -33 -3 -33 -23 0 -12
-3 -18 -7 -15 -11 11 -32 -14 -26 -30 5 -12 2 -15 -8 -11 -8 3 -20 -1 -27 -8
-10 -11 -10 -14 0 -14 9 0 9 -3 -2 -10 -8 -5 -15 -15 -15 -22 -1 -7 -6 -12
-13 -11 -7 2 -12 -8 -12 -22 0 -19 -5 -25 -22 -25 -17 0 -24 -6 -25 -25 -4
-50 -7 -56 -20 -51 -9 4 -13 -3 -13 -19 0 -18 -5 -25 -20 -25 -11 0 -20 -7
-20 -15 0 -13 4 -14 23 -5 l22 11 -23 -17 c-12 -9 -22 -27 -22 -39 0 -18 -4
-22 -21 -18 -14 4 -20 1 -19 -8 4 -28 -3 -153 -7 -131 -3 13 -10 21 -16 19
-15 -5 -18 -305 -4 -314 5 -3 3 -10 -4 -15 -11 -8 -11 -9 1 -5 8 2 14 11 12
21 -2 9 1 16 6 16 4 0 8 -10 9 -22 5 -127 7 -139 21 -116 l13 23 -4 -22 c-3
-13 -2 -23 3 -23 4 0 10 -9 13 -20 3 -11 13 -20 24 -20 15 0 16 -2 3 -10 -10
-6 -11 -10 -2 -10 7 0 12 -13 12 -30 0 -19 5 -30 13 -29 27 3 35 -2 30 -21 -4
-15 0 -20 16 -20 12 0 19 -4 16 -10 -3 -5 -1 -10 5 -10 6 0 8 -5 5 -11 -4 -6
0 -9 11 -7 10 2 19 -3 20 -9 1 -7 2 -18 3 -24 1 -8 7 -7 19 2 9 7 14 9 10 5
-4 -5 0 -15 10 -22 11 -9 13 -13 4 -14 -7 0 -11 -4 -8 -9 3 -5 22 -8 41 -7 27
1 35 -3 37 -19 2 -13 9 -19 21 -17 9 2 17 -2 17 -8 0 -7 9 -9 23 -5 21 5 20 5
-3 -10 -14 -9 -17 -14 -7 -11 9 3 17 1 17 -4 0 -5 8 -8 18 -6 9 2 28 0 42 -5
16 -4 19 -7 8 -8 -26 -1 -22 -19 5 -20 61 -2 84 -7 84 -18 0 -6 -7 -9 -16 -5
-9 3 -13 1 -8 -3 4 -5 26 -10 50 -11 44 -3 107 -22 75 -23 -10 -1 -18 -5 -18
-11 0 -5 6 -7 14 -4 19 7 30 -14 28 -54 -2 -27 1 -32 15 -30 15 2 19 -5 21
-39 2 -30 7 -41 17 -37 17 7 26 -9 27 -46 1 -31 11 -39 24 -18 5 7 3 8 -6 3
-9 -5 -11 -4 -6 4 4 6 12 9 17 5 5 -3 7 -9 4 -14 -3 -5 -1 -11 4 -15 6 -3 8
-12 4 -20 -3 -10 2 -15 16 -15 14 0 21 -6 21 -20 0 -14 7 -20 24 -20 18 0 23
-4 19 -18 -3 -14 3 -18 28 -20 17 -1 36 -5 40 -8 14 -8 10 -26 -3 -18 -9 5
-10 4 -3 -4 6 -6 45 -12 88 -14 42 -1 77 -5 77 -8 0 -3 -6 -12 -12 -19 -11
-11 -9 -11 9 0 12 7 19 17 17 21 -4 7 114 14 152 9 6 -1 16 5 23 12 8 10 7 14
-4 14 -8 0 -12 -4 -9 -9 3 -4 0 -8 -5 -8 -6 0 -11 5 -11 11 0 5 -6 7 -12 3 -7
-4 -9 -3 -5 1 4 5 29 11 55 12 26 2 54 11 62 20 8 9 9 13 3 9 -7 -4 -13 -2
-13 3 0 6 15 11 34 11 19 0 38 5 42 12 4 7 3 8 -4 4 -7 -4 -12 -1 -12 9 0 11
7 15 23 13 16 -2 21 2 19 14 -1 9 3 20 9 24 8 5 9 3 4 -5 -5 -9 -1 -9 14 1 12
7 19 18 17 25 -3 6 2 14 10 17 9 3 12 1 9 -4 -3 -6 -1 -10 4 -10 6 0 11 11 11
24 0 14 5 28 11 32 8 4 9 -1 4 -17 -7 -23 -7 -24 9 -4 8 11 16 28 16 38 0 11
8 17 21 17 16 0 20 5 16 20 -5 19 9 26 38 20 5 -1 7 2 3 5 -10 10 11 47 23 40
8 -6 13 8 10 27 0 4 10 10 24 14 14 3 22 10 19 16 -3 5 0 16 8 25 9 12 9 15 1
9 -9 -5 -11 -2 -7 8 3 9 10 14 14 11 4 -3 13 2 20 10 10 12 10 15 -1 16 -8 0
-2 5 14 11 25 9 33 26 28 64 -1 7 6 14 14 18 11 4 14 2 9 -7 -5 -8 -4 -9 4 -2
6 6 12 27 14 48 1 28 6 37 20 37 11 0 18 -7 18 -20 0 -13 7 -20 20 -20 17 0
20 -7 20 -39 0 -34 3 -39 20 -36 16 3 20 -2 21 -23 1 -15 1 -31 0 -37 -1 -5 6
-1 15 10 16 20 16 20 9 -4 -5 -17 -4 -21 5 -16 7 4 11 1 9 -6 -3 -29 2 -40 19
-37 11 2 18 -4 20 -19 2 -14 10 -23 22 -23 11 0 17 -7 16 -17 0 -11 7 -19 20
-21 17 -2 21 -8 16 -24 -4 -17 -2 -20 11 -15 16 6 31 -8 32 -28 0 -5 8 -9 18
-9 14 2 21 -12 19 -37 -1 -3 9 -5 21 -5 16 1 21 -4 19 -16 -2 -10 2 -18 8 -18
6 0 8 5 5 10 -3 6 -2 10 2 10 10 0 38 -42 35 -53 -1 -4 3 -7 8 -7 14 0 13 13
-2 28 -9 9 -9 12 1 12 7 0 15 -9 18 -20 3 -11 10 -20 15 -20 5 0 6 -6 2 -12
-6 -10 -3 -9 9 0 14 12 16 11 16 -5 -1 -34 8 -57 22 -61 8 -2 10 0 4 5 -15 12
-16 30 -1 30 7 0 13 -5 13 -11 -1 -52 4 -66 23 -66 13 0 20 -7 20 -20 0 -19
17 -25 62 -21 12 2 15 -4 11 -18 -5 -20 -1 -21 183 -21 266 -1 258 -1 243 -10
-7 -5 -17 -6 -21 -4 -4 3 -16 0 -25 -6 -15 -9 -14 -10 6 -4 18 5 22 3 15 -7
-6 -11 -4 -11 10 0 11 9 20 11 24 5 8 -12 22 -12 41 0 9 6 12 5 8 0 -8 -14
106 -13 115 0 6 8 8 7 8 -1 0 -15 119 -15 139 1 11 8 13 8 7 -1 -9 -16 -1 -16
26 -2 15 8 19 8 14 0 -4 -6 -3 -11 3 -11 5 0 12 6 14 13 4 10 6 10 6 0 1 -7
10 -13 21 -13 13 0 20 -7 20 -19 0 -16 8 -18 57 -17 47 1 58 4 61 19 2 10 9
16 15 14 7 -2 18 2 25 10 8 7 18 10 24 7 7 -4 8 -2 4 4 -4 6 -12 10 -19 9 -7
-2 3 3 21 11 17 8 32 19 32 24 0 5 -4 6 -10 3 -6 -3 -10 -1 -10 4 0 7 23 11
54 11 30 0 58 5 61 10 3 6 -1 10 -9 10 -8 0 -17 4 -20 8 -3 5 16 9 42 9 26 1
50 2 53 2 4 1 9 10 12 21 5 19 23 25 72 21 13 -1 16 1 8 6 -20 14 1 33 39 35
20 2 34 7 31 11 -3 5 -12 6 -20 3 -8 -3 -11 -1 -8 4 3 5 21 12 39 16 28 5 33
9 28 26 -4 17 -1 19 17 13 19 -6 26 2 22 27 0 4 11 11 25 14 16 4 23 12 20 20
-4 10 1 13 17 10 12 -1 22 -9 22 -17 0 -8 7 -13 16 -11 9 1 16 -4 16 -10 1 -7
2 -46 3 -85 1 -40 6 -70 11 -67 5 3 9 1 9 -5 0 -5 -6 -11 -12 -14 -10 -4 -10
-7 0 -18 9 -9 12 -10 12 -1 0 7 5 12 10 12 14 0 12 -27 -2 -33 -10 -4 -10 -6
0 -6 7 -1 12 -15 12 -36 0 -21 5 -35 13 -35 8 0 7 -4 -3 -11 -12 -9 -11 -10 8
-6 18 4 22 1 23 -21 1 -15 0 -36 -1 -47 l-2 -20 23 20 c18 15 20 15 10 3 -10
-13 -10 -18 -2 -18 7 0 10 -4 7 -8 -6 -11 5 -26 29 -41 19 -11 18 -12 -5 -6
-25 5 -25 5 -2 -6 13 -7 22 -21 22 -34 0 -16 6 -22 18 -21 12 1 16 -5 15 -21
-2 -14 2 -21 10 -18 6 3 19 0 27 -5 13 -9 13 -11 0 -20 -12 -8 -9 -10 12 -10
21 0 26 -4 23 -20 -2 -11 -1 -19 3 -19 4 1 10 0 15 -1 4 -1 13 -3 19 -4 7 0
13 -10 13 -21 0 -13 7 -20 20 -20 11 0 20 -7 20 -15 0 -8 10 -16 21 -18 17 -2
21 -8 16 -25 -5 -19 -3 -20 10 -9 12 9 18 10 23 2 4 -6 13 -9 21 -6 8 3 15 1
15 -4 1 -6 2 -16 3 -22 0 -7 8 -13 16 -13 8 0 20 -4 27 -8 6 -4 13 -2 15 5 3
7 7 5 11 -6 4 -9 3 -15 -2 -11 -5 3 -12 1 -16 -5 -6 -9 29 -15 63 -11 8 1 12
-6 10 -16 -2 -15 5 -19 40 -21 29 -2 40 -7 36 -15 -5 -8 -3 -8 7 1 17 16 26
15 26 -3 0 -8 -4 -12 -8 -9 -4 2 -10 1 -13 -4 -3 -5 16 -10 42 -11 87 -5 97
-8 100 -24 3 -14 16 -17 65 -19 34 0 70 0 80 0 14 2 17 -3 12 -18 -5 -15 -2
-20 12 -20 11 0 25 6 32 13 11 10 13 9 7 0 -6 -10 51 -13 269 -13 260 0 277 1
271 18 -5 15 -5 15 6 2 19 -23 56 -22 63 1 6 17 16 19 86 19 49 0 79 4 79 11
0 5 -5 7 -10 4 -6 -3 -10 -2 -10 3 0 13 17 18 75 21 51 3 60 6 60 22 0 5 5 9
10 8 6 0 9 -7 9 -14 -1 -8 3 -12 8 -9 5 3 7 12 4 20 -4 11 5 14 41 14 37 0 44
3 35 12 -7 7 -12 17 -12 22 0 6 5 4 10 -4 5 -8 10 -10 10 -4 0 6 8 11 18 11
45 0 62 4 62 14 0 5 -6 7 -12 4 -7 -4 -5 0 5 9 11 8 25 12 33 9 8 -3 14 0 14
7 0 10 3 10 15 0 13 -11 15 -8 15 13 0 20 4 25 20 22 11 -2 22 1 26 6 3 6 11
6 18 2 7 -4 3 0 -9 11 l-20 19 23 -7 c13 -4 22 -3 22 3 0 5 9 8 20 6 14 -3 20
2 20 16 0 13 7 19 24 19 19 0 23 4 19 20 -4 15 0 20 16 20 19 0 26 10 22 33 0
4 4 7 10 7 6 0 9 -7 6 -15 -4 -8 -1 -17 5 -21 6 -4 9 -3 5 2 -8 13 18 45 34
42 7 -2 14 3 15 10 1 6 2 17 3 23 0 6 10 8 24 3 l22 -7 -20 19 c-12 11 -15 15
-8 10 8 -5 13 -4 13 3 0 6 9 11 20 11 13 0 20 7 21 20 1 11 3 25 4 30 1 6 3
14 4 19 0 5 9 7 20 4 15 -4 18 0 14 21 -4 21 -2 25 15 21 14 -2 21 2 21 13 2
44 6 55 23 60 10 2 19 14 19 28 3 46 4 49 25 50 12 1 26 4 33 8 6 4 11 4 12
-1 11 -115 13 -125 32 -117 10 4 14 -4 13 -28 -1 -36 17 -63 36 -52 8 5 9 2 5
-10 -5 -11 1 -20 17 -27 16 -8 22 -17 19 -30 -4 -14 -1 -17 15 -14 22 4 38
-21 19 -29 -7 -2 0 -5 16 -5 24 -1 32 -10 28 -33 -1 -8 33 -12 74 -9 17 1 17
-1 -5 -13 -30 -18 -26 -19 88 -21 73 -1 82 1 82 17 0 10 3 17 8 17 4 -1 24 -1
45 0 28 1 36 4 31 14 -5 8 -2 8 9 -2 10 -8 17 -9 17 -3 0 6 -8 16 -17 21 -17
10 -16 11 2 9 48 -3 66 2 63 19 -2 11 5 19 17 21 11 2 25 9 30 14 7 8 6 9 -2
4 -7 -4 -13 -2 -13 3 0 6 9 11 20 11 18 0 25 10 21 33 0 4 8 7 19 7 15 0 20 7
20 27 0 26 0 26 22 7 19 -15 20 -16 9 -1 -7 9 -9 17 -3 17 5 0 12 9 15 21 3
12 10 18 16 15 5 -4 12 -2 16 4 3 5 1 10 -5 10 -6 0 -4 9 5 23 8 13 13 26 10
29 -3 2 2 5 10 5 11 0 12 -4 5 -11 -12 -12 -13 -26 -2 -26 4 0 13 13 19 30 7
18 7 30 2 30 -6 0 -7 5 -4 10 3 6 14 10 25 10 14 0 18 7 16 30 -3 39 10 61 24
40 8 -12 10 -10 11 10 1 14 1 28 0 33 -1 7 15 11 32 8 4 0 7 4 7 10 0 6 -7 9
-15 5 -8 -3 -15 -1 -15 4 0 6 7 10 15 10 9 0 15 10 15 26 0 17 4 23 13 18 9
-5 9 -4 0 6 -13 14 -6 43 9 34 6 -4 5 -10 -3 -16 -11 -8 -11 -9 1 -5 8 2 15 9
15 14 0 6 3 14 7 18 4 4 4 13 1 21 -3 8 0 14 6 14 6 0 11 5 11 11 0 5 -5 7
-11 3 -7 -4 -10 -1 -7 7 3 8 12 13 20 11 11 -1 15 9 17 40 2 24 4 51 4 60 1 9
5 14 10 11 5 -3 6 -11 4 -17 -3 -7 1 -13 8 -13 8 0 13 15 14 41 1 23 3 46 3
53 2 14 77 22 85 9 4 -5 1 -6 -7 -1 -9 6 -11 4 -5 -5 6 -10 10 -10 19 2 10 14
14 14 31 1 20 -15 20 -15 -1 -9 -15 5 -24 2 -28 -9 -4 -11 -2 -14 6 -9 18 11
58 14 58 4 0 -4 8 -7 18 -5 9 2 21 4 25 4 5 1 5 7 1 14 -5 8 -2 7 9 -2 19 -15
194 -20 216 -7 6 4 11 2 11 -5 0 -7 4 -8 13 -2 6 5 33 9 59 8 26 -1 47 1 46 4
0 3 0 13 1 21 1 13 2 13 11 0 5 -8 10 -10 10 -4 0 6 22 11 53 11 76 1 79 2 72
16 -4 6 0 4 9 -7 14 -18 15 -18 21 6 5 21 12 24 53 23 48 0 76 10 66 26 -5 9
18 13 64 11 13 -1 22 5 22 14 0 9 -5 12 -12 8 -7 -4 -8 -3 -4 4 4 7 15 12 25
12 9 0 23 6 30 12 11 10 13 10 7 1 -4 -7 -4 -13 1 -13 14 0 35 17 33 26 -2 10
30 22 53 18 11 -1 17 4 17 17 0 12 7 19 18 19 26 0 34 11 21 27 -9 10 -6 13
15 13 19 0 26 5 26 20 0 13 7 20 20 20 13 0 20 7 20 20 0 13 7 20 20 20 11 0
19 3 19 8 -3 20 3 30 21 35 13 3 18 11 14 21 -3 9 5 26 20 41 15 15 24 31 20
36 -3 6 3 13 15 16 21 5 20 24 -2 19 -7 -1 -9 -1 -4 1 4 3 4 10 1 16 -5 8 -2
8 7 0 21 -20 24 -16 23 25 -1 20 2 43 8 49 7 9 7 13 0 13 -6 0 -9 7 -6 15 4 8
10 15 16 15 5 0 6 -5 3 -10 -3 -6 -3 -16 2 -23 10 -16 19 130 15 251 -3 83 -5
92 -23 92 -19 0 -22 19 -4 32 6 5 5 8 -3 8 -9 0 -13 11 -11 34 2 19 0 38 -4
42 -4 4 -7 1 -7 -6 0 -7 -3 -10 -6 -7 -4 4 -1 13 6 22 14 16 0 21 -16 5 -6 -6
-10 -3 -10 9 0 11 5 17 11 13 6 -3 5 0 -1 9 -6 8 -12 22 -13 32 -3 45 -4 47
-18 36 -14 -12 -14 -11 -17 51 0 17 -4 30 -8 30 -5 0 -11 0 -14 0 -4 0 -1 -6
5 -13 8 -10 7 -14 -2 -14 -7 0 -14 11 -15 24 -1 13 -6 32 -12 42 -5 10 -6 21
-3 25 3 3 1 6 -6 6 -8 0 -11 -7 -6 -17 4 -12 3 -15 -4 -8 -5 6 -11 24 -13 40
-2 19 -9 30 -18 30 -8 0 -16 10 -18 23 -2 14 -10 22 -23 22 -10 0 -19 5 -19
11 0 5 6 7 13 3 6 -4 4 2 -7 14 -10 12 -22 19 -27 17 -4 -3 -10 -1 -13 4 -4 5
-1 13 5 17 8 4 9 3 5 -4 -5 -8 -1 -10 9 -5 13 4 14 8 4 14 -7 4 -17 5 -21 3
-4 -3 -8 4 -8 15 0 11 -5 23 -12 27 -7 5 -9 2 -4 -7 4 -8 1 -6 -7 3 -8 10 -17
15 -21 11 -4 -4 -4 1 0 12 6 15 4 17 -9 12 -11 -4 -17 -1 -17 8 0 8 -6 15 -12
15 -9 0 -9 3 1 9 11 7 9 10 -10 13 -16 2 -24 9 -23 20 1 10 -2 15 -7 12 -5 -3
-9 -1 -9 5 0 6 -8 7 -17 4 -13 -5 -15 -2 -10 11 5 12 0 19 -18 26 -16 6 -23
15 -19 25 5 12 -1 15 -27 15 -26 0 -30 3 -21 12 17 17 15 28 -4 28 -22 0 -48
27 -31 33 12 5 -28 11 -48 7 -5 -1 -4 4 3 11 16 17 15 26 -3 26 -8 0 -11 -5
-8 -11 3 -6 0 -5 -8 1 -7 7 -21 13 -31 13 -10 0 -17 3 -17 8 4 22 -3 32 -21
32 -22 0 -26 10 -9 27 8 8 2 10 -20 8 -27 -2 -31 1 -31 22 0 21 -2 23 -15 13
-12 -10 -16 -9 -21 3 -3 9 -12 13 -20 10 -8 -3 -14 -2 -13 3 3 19 -1 35 -9 30
-4 -2 -13 4 -20 15 -14 21 -3 26 17 6 10 -10 12 -9 9 3 -2 10 5 14 25 14 22
-1 28 2 24 16 -3 12 2 17 17 17 81 1 106 4 106 14 0 5 -4 8 -8 5 -5 -3 -9 1
-9 9 0 8 3 14 6 13 3 0 30 0 59 1 45 1 52 4 52 21 0 22 15 27 23 8 4 -10 6
-10 6 0 1 7 15 12 35 12 19 0 38 4 41 10 3 5 0 7 -8 4 -8 -3 -14 1 -14 9 0 9
13 14 35 15 41 2 70 21 50 34 -9 6 -7 8 7 6 49 -3 64 2 60 21 -2 14 1 18 11
14 7 -3 11 -10 7 -16 -3 -6 -1 -7 6 -3 6 4 9 12 6 17 -4 5 1 9 11 9 11 0 14 4
8 13 -5 7 0 4 10 -8 19 -20 19 -20 14 8 -3 17 -1 27 6 26 33 -4 44 2 39 20 -4
16 -1 19 15 14 15 -3 21 2 26 20 4 19 11 24 25 20 10 -3 22 1 26 8 5 8 4 10
-3 5 -7 -4 -12 -1 -12 9 0 9 4 14 9 10 5 -3 18 6 29 20 11 14 25 25 30 25 6 0
14 5 18 12 4 7 3 8 -4 4 -8 -4 -10 -2 -6 7 3 8 14 17 25 20 13 3 17 11 13 21
-4 11 -1 16 10 16 9 0 16 5 16 11 0 5 3 8 8 5 4 -2 6 14 4 37 -3 23 -1 39 3
35 5 -4 14 0 21 10 19 24 20 257 2 246 -9 -5 -9 -2 1 9 16 20 2 23 -19 5 -12
-11 -12 -10 -2 3 6 9 9 19 6 22 -6 6 -16 69 -15 100 0 12 -5 17 -14 13 -7 -2
-19 2 -25 10 -9 9 -9 14 -2 14 6 0 9 7 5 16 -3 8 -12 13 -20 10 -8 -3 -11 -1
-8 4 3 6 1 10 -5 10 -6 0 -10 8 -9 18 3 33 -1 42 -20 42 -10 0 -22 7 -25 16
-3 8 -2 12 4 9 6 -3 10 -1 10 4 0 6 -12 11 -26 11 -21 0 -24 4 -19 20 5 16 2
20 -15 20 -17 0 -21 5 -17 20 4 16 0 20 -20 20 -20 0 -24 4 -20 20 4 16 0 20
-19 20 -18 0 -24 5 -24 21 0 16 -5 20 -20 16 -19 -5 -26 8 -21 37 1 5 -6 3
-15 -5 -12 -9 -15 -9 -10 -1 4 7 1 12 -9 12 -9 0 -13 4 -10 10 3 6 1 10 -4 10
-6 0 -11 -5 -11 -12 0 -6 -3 -8 -6 -5 -4 4 -1 13 5 21 10 12 9 14 -6 11 -10
-1 -26 2 -37 7 -15 8 -16 12 -5 19 11 7 11 9 -3 10 -18 1 -30 4 -45 9 -5 1
-12 2 -18 1 -5 -1 -1 6 9 14 11 8 15 16 8 16 -7 1 -16 3 -22 4 -5 1 -21 3 -35
4 -16 1 -23 6 -19 15 4 9 -7 15 -35 20 -23 3 -41 11 -41 16 0 12 22 9 33 -5 5
-6 7 -4 5 4 -2 8 -17 16 -34 18 -44 5 -54 11 -48 27 4 10 -2 14 -18 14 -68 0
-91 6 -96 24 -4 17 -33 24 -84 19 -9 -1 -20 3 -24 10 -4 8 -3 9 4 5 7 -4 20
-2 29 3 15 8 15 11 3 12 -8 1 -19 3 -25 4 -5 2 -32 3 -58 4 -30 1 -46 5 -42
11 4 6 11 8 16 5 5 -3 6 0 4 7 -4 9 -22 13 -53 13 -26 -1 -53 4 -61 9 -8 6
-17 10 -20 9 -3 -2 -6 2 -6 9 0 8 -22 13 -68 14 -37 1 -71 4 -74 8 -4 4 -7 55
-8 114 -1 95 -3 107 -18 106 -16 -2 -23 24 -18 64 1 8 -4 21 -11 30 -8 10 -9
13 -1 9 16 -10 13 34 -4 51 -7 7 -13 10 -13 5 0 -5 5 -14 12 -21 9 -9 9 -12
-3 -12 -10 0 -16 12 -17 38 -5 65 -9 77 -26 74 -13 -2 -16 6 -16 38 0 30 -4
40 -16 40 -9 0 -12 -5 -8 -12 4 -7 3 -8 -4 -4 -7 4 -12 18 -12 32 0 24 -7 27
-62 27 -9 0 -17 2 -16 6 2 20 -4 31 -18 31 -14 0 -14 -3 -4 -15 11 -13 10 -14
-4 -9 -9 3 -16 9 -16 13 0 4 -8 7 -18 8 -10 1 -19 -5 -19 -12 0 -8 3 -12 7
-10 3 2 12 -1 20 -6 13 -9 13 -10 0 -8 -41 4 -84 -2 -71 -10 20 -13 5 -30 -21
-23 -14 3 -19 2 -14 -6 4 -7 3 -12 -3 -12 -6 0 -7 -8 -4 -17 6 -16 5 -17 -12
-3 -10 8 -16 10 -12 3 4 -6 2 -15 -4 -18 -5 -4 -8 -13 -5 -21 3 -8 1 -14 -4
-14 -6 0 -10 6 -11 13 0 6 -7 -1 -14 -18 -7 -16 -19 -30 -27 -30 -7 0 -12 -8
-10 -17 1 -9 -2 -19 -7 -23 -6 -3 -8 -12 -4 -20 3 -11 -2 -15 -17 -15 -17 0
-21 -4 -17 -20 3 -11 1 -20 -5 -20 -5 0 -6 -6 -2 -12 6 -10 4 -10 -8 0 -13 10
-17 10 -22 -3 -4 -11 -2 -14 7 -9 8 5 8 2 -2 -9 -7 -9 -11 -24 -7 -32 5 -13
-8 -20 -35 -17 -3 1 -6 -5 -6 -13 0 -8 5 -11 11 -8 6 4 5 0 -2 -9 -7 -9 -12
-20 -11 -24 4 -22 -2 -33 -16 -28 -14 6 -19 -10 -18 -53 1 -7 -3 -13 -8 -13
-6 0 -6 -8 0 -18 7 -14 6 -19 -4 -19 -8 0 -12 4 -9 8 2 4 0 10 -5 13 -5 4 -8
-5 -6 -19 1 -14 -1 -25 -6 -25 -5 0 -6 -7 -3 -15 4 -9 0 -15 -7 -15 -11 0 -11
-3 1 -10 13 -9 13 -10 0 -11 -8 -1 -18 -1 -22 0 -5 0 -7 -2 -7 -7 1 -4 0 -11
-1 -17 -1 -5 -3 -23 -3 -40 -2 -22 -7 -30 -19 -29 -23 2 -23 -5 0 -22 16 -13
16 -14 0 -8 -13 4 -18 1 -18 -13 0 -10 -6 -25 -12 -32 -8 -9 -9 -12 -1 -7 7 4
10 0 9 -11 -2 -9 -9 -19 -16 -21 -7 -3 -10 0 -6 6 3 6 2 14 -4 17 -6 4 -10 3
-9 -2 1 -4 1 -31 0 -60 -1 -46 -3 -51 -21 -46 -18 5 -20 0 -20 -37 0 -35 -3
-41 -17 -36 -15 6 -15 5 1 -13 11 -13 14 -21 6 -26 -6 -3 -10 -3 -9 2 3 19 -2
27 -10 15 -5 -8 -9 17 -10 64 -1 43 -6 83 -12 90 -7 8 -6 14 3 18 7 3 3 3 -9
0 -21 -5 -23 -2 -23 40 0 40 -3 46 -21 46 -13 0 -20 6 -18 18 6 60 -2 242 -11
237 -6 -3 -10 -1 -10 4 0 6 5 11 10 11 6 0 10 9 10 20 0 13 -7 20 -20 20 -12
0 -20 7 -20 18 0 14 2 15 10 2 8 -13 10 -12 10 3 0 9 -4 17 -8 17 -4 0 -8 21
-9 48 -2 145 -3 152 -18 146 -16 -6 -16 -5 -19 37 -1 31 -24 61 -39 52 -6 -4
-7 -1 -2 6 5 9 10 10 18 2 16 -16 26 -13 23 7 -2 10 -11 17 -24 16 -14 -1 -19
4 -17 17 5 24 -5 60 -15 54 -11 -7 -23 13 -26 44 -1 14 -3 31 -3 36 -1 6 -4 5
-9 -1 -9 -14 -27 3 -27 26 0 8 -8 14 -17 14 -16 -2 -22 8 -19 29 0 4 -7 7 -18
7 -10 0 -21 9 -24 20 -3 11 -13 20 -24 21 -97 5 -125 3 -145 -8 l-23 -14 24 7
c16 4 21 3 17 -5 -4 -6 -15 -11 -26 -11 -10 0 -20 -7 -24 -15 -3 -8 -1 -15 5
-15 6 0 7 -5 3 -11 -5 -8 -9 -8 -14 1 -4 7 -13 9 -19 6 -6 -4 -9 -12 -5 -17 7
-13 -15 -41 -27 -33 -8 5 -13 -13 -12 -44 1 -9 -3 -10 -11 -3 -7 6 -17 6 -26
1 -13 -8 -12 -10 2 -10 9 0 19 -4 22 -9 3 -5 -2 -8 -12 -7 -9 0 -16 -5 -14
-12 3 -18 -23 -43 -34 -32 -5 5 -15 5 -24 -1 -13 -9 -13 -10 2 -6 17 6 19 -16
3 -30 -4 -5 -5 -2 0 6 6 11 4 13 -8 8 -10 -4 -16 -2 -14 6 1 6 -8 13 -20 15
-21 3 -28 13 -24 35 1 5 -3 5 -9 2 -6 -4 -9 -13 -7 -19 3 -7 -1 -13 -8 -13 -7
0 -12 8 -10 19 3 15 -3 18 -48 19 -29 0 -61 5 -72 10 -19 9 -18 9 3 5 14 -3
20 0 15 7 -4 7 0 8 11 4 9 -4 15 -3 12 1 -3 4 -40 9 -83 11 -43 2 -94 4 -113
5 -32 2 -41 18 -12 22 6 1 10 -1 7 -5 -2 -4 2 -8 10 -8 8 0 16 6 19 12 6 16
-472 17 -493 1 -11 -8 -13 -8 -7 1 5 9 1 12 -11 11 -10 0 -29 0 -43 1 -20 1
-22 3 -10 11 10 6 11 10 3 10 -7 0 -13 7 -13 16 0 8 -4 12 -10 9 -5 -3 -10 -1
-10 5 0 6 -5 8 -12 4 -7 -5 -9 0 -6 14 5 17 2 20 -16 17 -21 -4 -21 -4 -1 12
13 10 14 14 4 10 -14 -4 -46 28 -42 44 1 3 -12 4 -28 3 -22 -2 -29 2 -25 12 6
15 -10 29 -34 29 -8 0 -21 4 -27 8 -8 5 -13 3 -13 -4 0 -7 -3 -10 -6 -6 -3 3
-3 11 1 17 5 8 11 8 21 -1 12 -10 13 -9 8 5 -5 13 -23 16 -108 16 -55 0 -108
-5 -116 -11 -12 -9 -11 -10 8 -6 12 3 22 1 22 -4 0 -5 -4 -10 -10 -10 -5 -1
-14 -3 -20 -4 -5 -1 -16 -3 -24 -4 -8 0 -17 -12 -20 -26 -4 -16 -11 -22 -21
-19 -10 4 -15 0 -15 -12 0 -11 -5 -26 -11 -34 -9 -13 -10 -12 -5 3 10 30 -15
18 -25 -12 -7 -20 -15 -28 -25 -24 -8 3 -14 1 -14 -5 0 -6 6 -13 13 -15 10 -4
10 -6 0 -6 -7 -1 -13 -10 -13 -21 0 -13 -7 -20 -20 -20 -15 0 -20 -7 -20 -25
0 -19 -5 -25 -16 -23 -10 2 -19 -3 -22 -11 -2 -8 0 -11 5 -8 5 3 15 1 23 -4
12 -8 11 -9 -5 -7 -14 2 -21 -3 -23 -19 -2 -15 -10 -23 -23 -23 -11 0 -18 -4
-14 -10 3 -5 13 -6 22 -3 11 4 14 3 9 -5 -4 -7 -15 -12 -25 -12 -14 0 -17 -6
-14 -24 4 -22 2 -24 -18 -19 -21 6 -21 7 -4 13 16 6 16 7 3 13 -12 4 -16 19
-14 62 0 31 -3 59 -7 62 -4 3 -3 11 4 19 11 14 10 15 -13 18 -16 2 -21 23 -7
32 9 5 10 2 6 -10 -4 -9 -3 -15 2 -11 6 3 9 14 8 25 -1 14 -4 16 -14 8 -7 -6
-13 -9 -14 -7 0 2 -2 28 -4 58 -3 48 -18 77 -35 66 -3 -2 -6 23 -5 56 0 42 -4
59 -13 59 -8 0 -10 -5 -6 -12 5 -10 4 -10 -6 -1 -7 6 -14 27 -15 45 -4 49 -4
50 -14 43 -13 -8 -22 10 -23 46 -1 22 -7 33 -20 37 -13 3 -18 14 -18 36 0 37
-8 50 -24 37 -8 -7 -12 0 -12 19 -2 47 -12 64 -28 51 -11 -9 -14 -9 -13 1 1
36 -4 48 -22 48 -14 0 -19 6 -16 20 3 18 -5 24 -26 22 -7 -1 -23 57 -20 71 1
4 -4 7 -11 6 -25 -3 -38 1 -38 12 0 5 4 7 10 4 5 -3 7 0 4 8 -3 8 -13 14 -22
13 -11 -1 -16 5 -14 15 2 17 -23 33 -38 24 -4 -3 -11 2 -14 11 -4 9 -2 13 5 8
7 -4 10 -1 7 7 -3 8 -12 13 -22 11 -9 -2 -16 2 -16 8 0 6 -6 8 -12 4 -9 -5 -9
-2 1 9 12 15 11 17 -8 17 -19 0 -26 10 -22 33 0 4 -8 7 -19 7 -18 0 -25 11
-21 33 1 4 -4 7 -11 6 -38 -5 -60 3 -65 21 -3 11 -14 20 -24 20 -12 0 -19 7
-19 20 0 16 -7 20 -32 21 -28 0 -30 2 -13 9 11 5 14 9 7 9 -7 1 -10 6 -7 11 3
6 2 10 -4 10 -5 0 -12 -6 -14 -12 -4 -10 -6 -10 -6 0 -1 6 -13 12 -27 12 -21
0 -25 4 -21 20 6 22 -8 28 -16 8 -4 -10 -6 -10 -6 0 -1 6 -14 12 -30 12 -25 0
-28 3 -24 21 5 18 2 20 -28 17 -27 -2 -36 1 -44 20 -5 12 -16 22 -23 22 -8 0
-10 -5 -6 -12 6 -10 5 -10 -7 -1 -9 7 -30 14 -48 15 -18 1 -35 7 -38 12 -3 5
-1 6 5 2 7 -4 12 -1 12 6 0 10 2 10 9 -1 6 -9 11 -10 15 -2 4 6 4 11 -1 12 -4
0 -30 2 -58 4 -34 3 -55 10 -66 23 -11 14 -25 19 -51 17 -27 -2 -35 0 -32 10
3 7 0 16 -7 21 -7 4 -10 3 -6 -2 3 -6 -4 -16 -16 -24 -20 -12 -21 -12 -8 4 18
22 8 31 -34 28 -23 -2 -35 2 -35 10 0 8 -3 9 -8 3 -7 -10 -52 -17 -52 -8 0 2
10 8 23 13 20 8 21 9 2 10 -11 1 -29 4 -40 6 -11 3 -44 6 -72 6 -29 1 -53 5
-53 8 0 18 -61 27 -215 29 -93 1 -199 3 -233 4 -35 1 -65 1 -66 0z m451 -35
c-3 -8 -6 -5 -6 6 -1 11 2 17 5 13 3 -3 4 -12 1 -19z m53 -2 c0 -10 -34 2 -38
13 -3 10 0 10 17 2 11 -7 21 -13 21 -15z m-955 -26 c3 -5 1 -10 -4 -10 -6 0
-11 5 -11 10 0 6 2 10 4 10 3 0 8 -4 11 -10z m1099 -2 c-3 -4 -11 -5 -19 -1
-21 7 -19 12 4 10 11 0 18 -5 15 -9z m-2194 -663 c0 -2 -6 -5 -13 -8 -8 -3
-14 1 -14 8 0 7 6 11 14 8 7 -3 13 -6 13 -8z m-43 -79 c0 -8 -6 -12 -15 -9
-11 5 -11 7 0 14 7 5 13 9 14 9 0 0 1 -6 1 -14z m3423 -41 c0 -8 -4 -15 -10
-15 -5 0 -7 7 -4 15 4 8 8 15 10 15 2 0 4 -7 4 -15z m-3500 -254 c0 -5 -7 -11
-14 -14 -10 -4 -13 -1 -9 9 6 15 23 19 23 5z m4390 -176 c11 -13 10 -14 -4 -9
-9 3 -16 10 -16 15 0 13 6 11 20 -6z m-189 -84 c4 8 9 8 13 1 4 -6 15 -9 25
-7 14 3 18 -1 14 -16 -3 -11 0 -19 6 -19 7 0 9 5 5 13 -6 9 -5 9 7 1 8 -7 23
-13 34 -15 14 -3 20 -13 21 -42 2 -37 2 -37 -37 -37 -36 0 -45 -7 -40 -33 1
-5 -3 -6 -9 -2 -6 3 -8 10 -5 15 3 4 -1 10 -9 13 -10 4 -12 0 -9 -14 4 -16 0
-19 -24 -19 -16 0 -35 -6 -42 -12 -11 -11 -12 -10 -6 1 6 10 4 12 -4 7 -7 -5
-10 -14 -7 -21 3 -8 -2 -12 -12 -10 -22 3 -44 -14 -35 -28 3 -6 1 -7 -6 -3 -6
4 -9 12 -6 17 4 5 1 9 -6 9 -6 0 -9 -8 -6 -20 3 -12 1 -20 -6 -19 -25 3 -47
-1 -46 -8 4 -24 -3 -31 -26 -27 -16 3 -25 0 -25 -9 0 -7 -9 -20 -20 -30 -11
-9 -20 -12 -20 -6 0 5 -4 7 -10 4 -5 -3 -10 -15 -10 -25 0 -14 -5 -18 -17 -13
-12 5 -14 3 -8 -7 5 -9 4 -11 -3 -6 -10 6 -16 -9 -14 -34 0 -3 -8 -7 -19 -7
-17 -2 -18 0 -4 13 19 20 20 30 0 14 -12 -10 -15 -10 -15 3 0 8 8 21 17 28 15
12 16 12 8 -1 -5 -10 -5 -12 3 -5 6 6 12 26 14 45 2 23 8 35 18 35 10 0 17 13
20 40 4 31 9 39 23 37 11 -2 17 4 17 18 0 17 10 24 31 22 4 -1 7 10 8 23 3 48
4 55 13 55 5 0 8 -7 6 -16 -2 -10 3 -18 10 -20 7 -1 8 0 3 2 -16 9 15 69 36
69 12 0 17 7 16 20 -1 20 -1 20 13 1 14 -19 14 -19 14 3 0 12 4 20 8 17 4 -2
14 -1 21 4 8 4 27 4 44 -1 21 -6 33 -5 38 2z m-4127 -137 c3 -8 2 -12 -4 -9
-6 3 -10 10 -10 16 0 14 7 11 14 -7z m5656 1 c0 -8 11 -20 25 -25 14 -5 24
-15 23 -22 -2 -7 4 -12 12 -13 8 0 16 -10 18 -21 2 -12 12 -24 23 -27 12 -3
19 -14 20 -31 2 -39 3 -44 13 -53 5 -5 6 -2 1 6 -5 9 -3 12 6 9 9 -3 15 -24
17 -59 4 -77 4 -78 19 -72 14 5 15 -4 15 -77 0 -64 -1 -69 -20 -67 -14 1 -17
10 -17 43 0 32 -3 40 -12 32 -6 -5 -9 -17 -6 -26 4 -14 3 -15 -5 -2 -6 8 -8
18 -6 22 3 4 1 8 -5 8 -5 0 -8 9 -6 20 3 15 -2 20 -20 20 -13 0 -27 5 -31 12
-4 7 -3 8 4 4 7 -4 12 -1 12 8 0 9 -9 16 -20 16 -14 0 -20 7 -20 23 0 18 -2
19 -10 7 -9 -13 -12 -13 -25 3 -7 11 -11 25 -9 31 3 7 -2 13 -10 13 -8 0 -13
-5 -10 -11 3 -6 -2 -2 -10 8 -9 11 -16 15 -16 8 0 -6 -6 -9 -14 -6 -8 3 -13
15 -11 26 3 14 0 18 -10 14 -8 -3 -17 -1 -20 5 -4 5 -11 6 -17 3 -6 -4 -6 1 1
14 10 18 8 20 -14 17 -25 -2 -28 2 -27 40 1 17 0 17 -4 3 -8 -27 -24 -22 -24
7 0 19 5 25 17 23 12 -2 18 4 18 17 0 11 9 21 21 25 12 3 20 12 19 20 -2 12
10 16 56 18 48 3 59 0 59 -13z m1000 -155 c-24 -15 -36 -11 -14 4 10 8 21 12
24 10 2 -3 -2 -9 -10 -14z m72 -20 c11 0 18 -7 18 -20 0 -13 7 -20 20 -20 17
0 20 -7 20 -40 0 -22 5 -40 10 -40 6 0 10 -5 10 -11 0 -5 -4 -8 -8 -5 -5 3 -9
-1 -9 -8 0 -7 6 -13 13 -13 7 0 11 4 8 8 -2 4 0 11 6 14 6 4 10 3 9 -2 -1 -4
-1 -39 0 -76 1 -49 4 -66 13 -61 7 5 8 3 2 -7 -13 -21 -14 -39 -2 -39 6 0 8 7
5 14 -4 10 -1 13 7 10 8 -3 13 -22 12 -49 0 -34 -4 -45 -19 -49 -10 -2 -16 -2
-13 1 3 3 -2 12 -12 20 -13 10 -14 13 -2 11 8 -2 18 -7 21 -12 4 -4 10 -3 13
3 4 6 4 11 -1 12 -48 6 -65 4 -76 -9 -6 -9 -7 -13 -2 -10 6 4 17 2 25 -3 11
-7 8 -8 -10 -6 -14 2 -25 9 -25 15 0 6 -3 14 -7 18 -5 4 -8 2 -8 -4 0 -7 -10
-8 -30 -2 -26 7 -30 6 -28 -8 2 -12 -5 -17 -22 -18 -14 -1 -31 -3 -39 -5 -7
-2 -15 1 -18 8 -3 7 3 11 15 8 11 -2 19 2 19 11 0 8 -4 10 -11 5 -6 -5 -19 -7
-28 -6 -10 2 -21 -2 -25 -7 -3 -7 -1 -8 5 -4 7 4 12 1 12 -6 0 -11 -16 -14
-60 -13 -48 1 -59 -2 -57 -14 2 -15 -20 -20 -93 -25 -32 -1 -53 -18 -36 -28 7
-5 6 -8 -5 -8 -9 0 -18 3 -22 6 -8 9 4 35 13 29 12 -7 22 12 25 47 3 36 13 47
25 28 8 -12 10 -9 10 10 0 14 1 35 1 48 0 14 6 22 18 22 14 0 18 9 19 37 1 20
7 41 13 47 9 8 10 5 6 -14 -6 -24 -5 -24 9 -5 8 11 12 25 10 32 -5 12 27 37
36 28 3 -3 5 1 5 9 0 16 -17 17 -30 1 -5 -6 -7 -4 -4 5 2 8 9 16 15 16 7 1 17
2 23 3 6 0 8 10 4 23 -6 17 -4 20 9 15 11 -5 18 1 22 19 5 19 12 24 25 21 16
-4 18 -1 15 19 -5 27 3 31 23 12 11 -10 13 -10 7 0 -4 7 -1 12 8 12 27 0 31 2
45 23 l15 21 9 -22 c6 -12 18 -22 29 -22z m-817 -30 c3 -5 1 -10 -4 -10 -6 0
-11 5 -11 10 0 6 2 10 4 10 3 0 8 -4 11 -10z m-5802 -31 c-8 -8 -13 -7 -18 2
-5 8 -4 10 3 5 7 -4 12 -2 12 5 0 7 3 9 7 6 4 -4 2 -12 -4 -18z m17 -39 c0
-13 7 -20 20 -20 13 0 20 -7 20 -19 0 -11 9 -21 22 -24 19 -5 20 -8 7 -23 -9
-12 -10 -15 -1 -10 6 4 12 3 12 -3 0 -6 7 -7 17 -4 11 4 14 3 9 -5 -4 -7 -2
-12 6 -12 9 0 9 -3 -2 -10 -10 -6 -11 -10 -2 -10 6 0 12 -9 12 -20 0 -11 5
-20 11 -20 5 0 7 5 4 11 -4 6 2 5 14 -3 12 -7 17 -14 12 -16 -6 -2 -7 -12 -1
-27 6 -15 5 -25 -2 -27 -6 -2 -4 -9 5 -16 12 -10 14 -8 12 13 -2 17 2 25 11
25 9 0 12 -4 9 -10 -12 -19 -14 -50 -3 -50 6 0 9 -3 6 -6 -4 -3 -17 0 -30 7
-23 12 -23 12 -4 -10 11 -11 15 -21 10 -21 -5 0 -2 -5 6 -11 13 -9 13 -10 0
-6 -8 2 -14 10 -13 16 2 6 -1 11 -5 11 -5 0 -8 -16 -8 -35 1 -24 6 -35 16 -36
13 0 13 -1 0 -7 -12 -6 -15 -26 -15 -97 l0 -90 -65 -2 c-36 -2 -69 -4 -75 -5
-5 0 -21 2 -34 6 -13 5 -21 4 -18 -1 3 -5 -3 -9 -14 -9 -10 0 -19 3 -19 6 0 8
-37 6 -46 -2 -3 -4 -17 -3 -30 2 -14 6 -26 6 -29 -1 -4 -5 -10 -7 -15 -4 -5 3
-12 0 -16 -6 -4 -7 -3 -9 3 -6 6 4 13 1 16 -6 3 -9 -13 -13 -67 -14 -122 -2
-136 -6 -118 -29 4 -5 3 -6 -3 -1 -5 4 -10 21 -11 37 0 23 3 27 13 19 7 -6 10
-16 6 -23 -3 -6 -2 -7 2 -3 5 4 11 31 13 60 2 29 4 58 4 64 1 9 5 10 15 2 7
-6 14 -8 14 -3 3 14 6 56 8 86 1 19 5 26 15 22 8 -3 17 0 22 7 5 8 3 10 -7 4
-11 -7 -12 -6 -3 6 6 8 10 24 8 36 -3 16 2 22 19 25 16 2 21 9 19 26 -2 13 2
22 10 22 9 0 9 3 -2 10 -13 8 -11 11 7 16 12 3 23 15 25 28 2 11 8 21 15 21
18 0 24 11 25 44 1 23 6 31 20 31 11 0 18 7 18 20 0 13 7 20 18 20 10 0 19 6
19 13 4 60 6 63 45 66 32 1 38 -1 38 -19z m5717 -5 c0 -8 -4 -12 -9 -9 -5 3
-6 10 -3 15 9 13 12 11 12 -6z m1087 -80 c-4 -8 -11 -12 -16 -9 -6 4 -5 10 3
15 19 12 19 11 13 -6z m-6980 -71 c3 -8 2 -12 -4 -9 -6 3 -10 10 -10 16 0 14
7 11 14 -7z m6006 2 c0 -2 -8 -10 -17 -17 -16 -13 -17 -12 -4 4 13 16 21 21
21 13z m790 -131 c0 -2 -9 -3 -19 -2 -11 0 -18 5 -15 9 4 6 34 0 34 -7z m337
-30 c0 -8 -4 -15 -9 -15 -4 0 -8 7 -8 15 0 8 4 15 8 15 5 0 9 -7 9 -15z
m-6647 -37 c0 -14 6 -18 23 -16 18 2 21 -1 19 -19 -3 -18 2 -23 19 -23 16 0
20 -5 16 -20 -4 -17 0 -20 26 -20 19 0 27 -4 20 -8 -19 -12 2 -34 28 -30 17 2
27 -3 34 -19 5 -12 19 -23 30 -25 12 -2 19 -9 17 -20 -2 -11 5 -18 20 -20 16
-2 22 -9 20 -21 -3 -18 17 -20 31 -2 4 6 6 -6 5 -25 -2 -25 -7 -34 -18 -32
-16 4 -70 9 -108 11 -13 1 -20 5 -17 11 4 6 11 8 16 5 5 -4 9 -1 9 4 0 14 -6
14 -30 1 -15 -8 -18 -7 -14 3 4 11 -7 13 -48 11 -30 -1 -59 3 -67 9 -12 9 -13
9 -7 0 4 -7 3 -13 -3 -13 -19 0 -21 19 -4 30 17 11 17 11 -1 6 -10 -4 -25 -1
-32 5 -17 14 -18 -2 -1 -20 8 -9 8 -12 0 -7 -6 3 -14 1 -16 -4 -3 -6 -4 -5 -3
2 2 7 -6 18 -18 25 -18 10 -21 21 -21 71 0 37 4 58 11 55 5 -2 10 -14 10 -28
0 -13 -3 -22 -6 -20 -12 8 -3 -56 10 -68 10 -10 10 -8 1 10 -13 25 -14 36 -3
30 4 -3 7 15 8 39 1 24 -3 44 -8 44 -4 0 -8 5 -8 11 0 5 4 8 9 5 5 -3 11 1 14
8 3 8 1 17 -6 20 -9 5 -9 7 0 12 7 3 9 12 6 20 -3 8 -3 21 1 29 7 20 36 7 36
-17z m-56 -8 c-6 -6 -10 -3 -10 10 0 13 4 16 10 10 7 -7 7 -13 0 -20z m-576
-115 c-3 -3 -9 2 -12 12 -6 14 -5 15 5 6 7 -7 10 -15 7 -18z m6226 -83 c3 -5
-1 -9 -9 -9 -8 0 -12 4 -9 9 3 4 7 8 9 8 2 0 6 -4 9 -8z m-6060 -33 c-3 -5
-10 -7 -15 -3 -5 3 -7 10 -3 15 3 5 10 7 15 3 5 -3 7 -10 3 -15z m824 -55 c4
2 14 1 22 -5 13 -7 13 -9 0 -9 -13 0 -13 -1 0 -10 13 -9 13 -10 0 -11 -8 0
-27 -2 -42 -3 -16 -1 -28 2 -28 7 0 4 -6 5 -12 2 -7 -4 -3 2 10 13 12 11 22
28 23 39 0 14 2 14 10 -5 5 -13 12 -21 17 -18z m5317 17 c3 -5 2 -12 -3 -15
-5 -3 -9 1 -9 9 0 17 3 19 12 6z m-5245 -79 c0 -14 -2 -14 -9 -3 -7 11 -10 10
-13 -5 -5 -18 -5 -18 -13 0 -5 12 -3 21 6 26 17 11 29 3 29 -18z m7305 -352
c-3 -5 -12 -10 -18 -10 -7 0 -6 4 3 10 19 12 23 12 15 0z m41 -357 c-2 -9 -9
-19 -17 -21 -11 -3 -11 -1 1 7 8 6 11 11 7 11 -5 0 -5 5 -2 10 9 15 14 12 11
-7z m-9891 -542 c3 -5 2 -12 -3 -15 -5 -3 -9 1 -9 9 0 17 3 19 12 6z m8985
-121 c0 -5 -2 -10 -4 -10 -3 0 -8 5 -11 10 -3 6 -1 10 4 10 6 0 11 -4 11 -10z
m-8900 -364 c0 -3 -4 -8 -10 -11 -5 -3 -10 -1 -10 4 0 6 5 11 10 11 6 0 10 -2
10 -4z m280 -201 c0 -2 -6 -5 -13 -8 -8 -3 -14 1 -14 8 0 7 6 11 14 8 7 -3 13
-6 13 -8z m128 -50 c-3 -3 -9 2 -12 12 -6 14 -5 15 5 6 7 -7 10 -15 7 -18z
m132 -476 c0 -5 -4 -9 -8 -9 -5 0 -9 7 -9 15 0 8 4 12 9 9 4 -3 8 -9 8 -15z
m9225 11 c-3 -5 -12 -10 -18 -10 -7 0 -6 4 3 10 19 12 23 12 15 0z m-9278
-162 c-3 -8 -6 -5 -6 6 -1 11 2 17 5 13 3 -3 4 -12 1 -19z m1753 -173 c0 -8
-4 -15 -10 -15 -5 0 -7 7 -4 15 4 8 8 15 10 15 2 0 4 -7 4 -15z m19 -21 c-6
-7 -6 -15 -1 -18 5 -3 7 -21 6 -40 -2 -23 1 -36 9 -36 7 0 6 -4 -3 -10 -13 -9
-13 -10 0 -10 12 0 13 -2 1 -9 -11 -7 -9 -10 7 -15 18 -6 20 -15 20 -84 0 -81
-5 -105 -19 -97 -5 3 -11 -5 -15 -19 -3 -14 -11 -24 -18 -23 -6 1 -10 -4 -8
-10 1 -7 -2 -13 -6 -13 -4 0 -9 -12 -10 -27 -3 -33 -11 -42 -22 -23 -8 13 -10
12 -11 -2 -3 -39 -5 -43 -22 -41 -12 0 -16 -4 -13 -13 3 -7 1 -16 -4 -19 -5
-3 -7 -14 -5 -24 2 -10 -3 -18 -11 -18 -11 0 -11 4 -2 16 11 14 10 14 -6 0
-15 -14 -23 -32 -25 -63 -1 -5 -8 -3 -16 4 -15 13 -20 5 -16 -27 2 -12 -11
-17 -31 -14 -5 0 -8 -8 -8 -19 0 -18 -16 -26 -43 -21 -4 1 -3 -8 3 -19 9 -17
8 -21 -2 -19 -28 3 -38 -2 -38 -21 0 -12 -6 -20 -12 -19 -28 3 -36 -2 -31 -21
6 -21 -11 -28 -23 -8 -5 7 -3 8 6 3 9 -5 11 -4 6 4 -4 6 -12 9 -17 5 -5 -3 -7
-10 -4 -15 4 -5 -1 -9 -10 -9 -10 0 -13 -5 -9 -12 5 -9 2 -9 -9 1 -19 15 -24
2 -6 -16 7 -7 4 -10 -13 -9 -13 0 -26 6 -30 11 -4 6 -8 2 -8 -8 0 -14 -5 -17
-22 -12 -22 7 -22 6 -4 -7 21 -16 20 -17 -54 -21 -31 -1 -39 -5 -35 -17 4 -13
4 -13 -8 0 -14 17 -42 26 -32 10 3 -5 2 -10 -4 -10 -5 0 -12 4 -16 10 -3 5
-13 6 -21 3 -14 -5 -12 -8 7 -19 l24 -13 -23 2 c-12 1 -24 9 -27 17 -5 17 -35
23 -35 8 0 -5 -6 -6 -12 -1 -7 4 -26 8 -41 8 -26 1 -51 21 -42 35 2 4 -2 7
-10 7 -8 0 -11 -5 -8 -10 4 -6 1 -7 -8 -1 -8 5 -17 9 -21 9 -3 0 -10 4 -15 8
-4 5 -3 7 2 5 6 -2 11 2 13 7 1 6 -3 10 -8 10 -14 0 -30 27 -23 39 4 5 -3 7
-15 4 -17 -5 -21 -1 -24 21 -2 18 -8 25 -20 23 -15 -2 -20 20 -6 33 3 4 72 7
152 7 124 1 146 4 146 17 0 12 -3 12 -12 3 -16 -16 -25 -15 -25 1 0 10 17 14
56 15 87 1 107 3 94 9 -20 7 8 30 38 31 13 0 38 1 54 2 28 2 28 2 6 9 -23 6
-23 7 -5 21 10 9 15 10 10 3 -4 -7 -2 -13 3 -13 6 0 11 4 11 10 0 5 6 7 14 4
8 -3 17 0 21 5 3 6 12 8 18 4 7 -4 6 0 -2 10 -7 9 -10 18 -5 18 5 1 16 2 24 3
8 0 14 9 12 19 -2 9 1 17 5 16 21 -4 32 3 38 21 3 11 11 20 18 20 8 0 8 -3 -1
-12 -17 -17 -15 -33 3 -18 8 7 15 18 15 25 0 7 8 12 18 11 11 -1 16 5 14 17
-2 9 2 17 9 17 6 0 9 7 6 15 -7 18 9 30 19 14 5 -8 3 -9 -7 -4 -12 8 -12 6 0
-8 17 -22 21 -21 16 3 -2 11 0 22 5 25 5 3 7 12 3 20 -3 11 2 15 17 15 15 0
20 5 17 14 -6 15 22 45 31 36 3 -3 6 14 8 37 3 48 10 63 27 63 7 0 6 -4 -3
-10 -12 -8 -13 -11 -2 -22 8 -7 13 -8 12 -3 -2 6 -2 12 -1 15 2 3 4 25 6 49 3
24 10 49 16 55 9 8 11 7 6 -5 -3 -9 0 -16 7 -16 7 0 11 19 10 53 -1 36 3 55
12 58 8 3 14 13 14 23 0 15 2 16 10 3 5 -9 5 -19 -1 -26z m2494 -21 c-7 -2
-13 -9 -13 -14 0 -6 4 -8 9 -5 5 4 9 -63 8 -161 -2 -159 -3 -168 -21 -165 -14
3 -17 -1 -12 -13 3 -9 3 -22 0 -27 -4 -6 -7 -32 -8 -59 -1 -26 -4 -51 -8 -55
-5 -4 -8 -2 -8 5 0 7 -4 9 -10 6 -11 -7 -12 3 -12 78 1 45 0 47 -21 37 -22
-11 -22 -11 -2 5 11 9 20 28 21 45 0 25 -2 27 -18 19 -15 -8 -18 -6 -18 16 0
15 6 25 14 25 8 0 16 7 20 15 3 8 1 15 -4 15 -6 0 -10 -4 -10 -10 0 -5 -4 -10
-10 -10 -18 0 -11 20 9 28 11 4 20 10 20 15 1 4 1 30 1 57 0 28 3 49 8 49 25
-4 31 4 29 41 -2 22 1 40 5 40 4 0 8 7 8 15 0 8 8 15 18 14 10 0 12 -3 5 -6z
m2561 -113 c8 0 16 -9 19 -20 4 -14 10 -18 23 -13 12 4 15 3 10 -6 -6 -9 0
-10 21 -6 l28 5 -25 -12 -25 -12 34 -4 c34 -4 65 -24 54 -36 -4 -3 -2 -6 3 -6
6 0 15 5 22 12 9 9 10 6 7 -12 -3 -18 -2 -21 7 -12 18 18 31 14 25 -8 -5 -18
0 -20 39 -20 37 0 44 -3 44 -20 0 -20 17 -25 64 -20 14 1 18 -3 13 -19 -5 -19
-1 -21 39 -21 39 0 44 -3 44 -22 1 -23 1 -23 16 2 13 22 14 22 9 3 -5 -18 -2
-21 25 -19 17 1 33 -1 36 -6 3 -5 10 -5 16 -2 7 4 8 2 4 -4 -4 -6 -12 -10 -19
-8 -7 1 -9 1 -4 -1 4 -3 4 -10 0 -16 -4 -7 1 -6 11 2 14 12 19 12 25 2 5 -7
17 -12 27 -11 42 5 54 0 55 -22 l0 -23 9 23 c11 26 18 29 16 5 -1 -13 8 -17
39 -19 57 -2 58 -2 51 -19 -3 -8 -2 -14 2 -14 4 1 9 0 12 -1 3 -1 37 -4 75 -6
90 -5 95 -6 89 -15 -2 -5 -12 -6 -22 -3 -14 5 -14 4 -3 -4 8 -6 20 -8 27 -5 9
3 11 -2 7 -18 -4 -15 -3 -20 5 -15 7 4 12 3 12 -3 0 -5 -5 -13 -11 -16 -6 -4
-8 -13 -5 -21 3 -7 1 -16 -5 -19 -5 -4 -6 -11 -3 -17 4 -7 2 -8 -5 -4 -6 4 -8
13 -4 19 4 7 -1 6 -11 -2 -13 -11 -14 -16 -4 -22 8 -6 9 -9 2 -9 -7 0 -11 -16
-10 -39 2 -33 -1 -38 -19 -37 -17 1 -20 -5 -20 -35 0 -22 -4 -36 -12 -36 -7 0
-10 4 -7 8 2 4 1 10 -4 13 -4 2 -9 -5 -9 -17 -3 -45 -22 -92 -23 -56 -1 8 -8
1 -16 -14 -9 -16 -13 -35 -10 -43 3 -9 -1 -14 -14 -14 -13 0 -20 -7 -20 -20 0
-11 -5 -20 -11 -20 -5 0 -7 -4 -4 -10 3 -5 2 -10 -4 -10 -5 0 -12 6 -15 13 -4
6 -4 2 -2 -10 2 -13 0 -26 -5 -29 -5 -3 -7 -10 -3 -15 3 -6 -3 -13 -15 -16
-12 -3 -21 -13 -21 -24 0 -12 -7 -19 -20 -19 -18 0 -25 -11 -21 -34 1 -5 -7
-6 -19 -3 -11 3 -20 1 -20 -5 0 -5 -4 -7 -9 -3 -5 3 -13 1 -16 -5 -4 -6 -3 -9
2 -8 4 2 8 -2 8 -7 0 -6 -3 -9 -7 -8 -4 2 -20 -2 -35 -8 -25 -10 -26 -12 -9
-18 19 -7 19 -8 -2 -13 -12 -4 -22 -2 -22 4 0 6 -6 5 -15 -2 -8 -7 -22 -10
-30 -6 -15 5 -18 -3 -16 -34 0 -10 -1 -11 -5 -3 -4 10 -11 10 -26 2 -16 -8
-22 -8 -29 2 -4 7 -5 17 -2 23 3 5 1 6 -6 2 -6 -4 -9 -11 -6 -16 3 -5 1 -11
-5 -15 -5 -3 -10 0 -10 7 0 8 -3 9 -8 3 -9 -13 -42 -16 -42 -3 0 5 -5 6 -12 2
-7 -4 -8 -3 -4 4 4 6 13 9 20 6 8 -3 17 -1 20 5 4 5 -2 10 -11 10 -71 3 -78 6
-74 34 0 4 -11 7 -25 7 -17 0 -23 4 -18 13 5 8 2 8 -9 -2 -11 -9 -17 -10 -18
-2 -1 6 -3 16 -4 21 -1 6 -3 19 -4 30 -1 13 -8 20 -22 20 -16 0 -19 4 -14 20
5 15 2 20 -13 20 -11 0 -23 7 -26 16 -3 8 -2 12 4 9 6 -3 10 -1 10 4 0 6 -4
11 -9 11 -6 0 -8 9 -6 20 2 11 -1 20 -6 20 -6 0 -17 7 -25 15 -9 8 -12 15 -7
15 5 0 14 -5 20 -11 8 -8 13 -7 18 2 5 7 4 10 -2 6 -6 -4 -17 0 -24 9 -10 12
-13 76 -14 267 -2 303 -1 288 -20 281 -15 -6 -19 23 -16 114 0 22 -5 35 -17
40 -20 8 -22 18 -24 78 0 25 -4 47 -9 50 -5 3 -9 10 -9 17 0 6 7 1 16 -11 8
-12 21 -22 28 -22z m-39 -8 c-3 -3 -11 0 -18 7 -9 10 -8 11 6 5 10 -3 15 -9
12 -12z m-5144 -119 c13 -16 12 -17 -3 -4 -17 13 -22 21 -14 21 2 0 10 -8 17
-17z m5166 -15 c-3 -8 -6 -5 -6 6 -1 11 2 17 5 13 3 -3 4 -12 1 -19z m-6682
-18 c3 -5 1 -10 -4 -10 -6 0 -11 5 -11 10 0 6 2 10 4 10 3 0 8 -4 11 -10z
m4052 -55 c0 -8 -6 -16 -14 -19 -15 -6 -13 15 2 26 6 4 10 8 11 8 0 0 1 -7 1
-15z m4793 -25 c0 -5 -5 -10 -11 -10 -5 0 -7 5 -4 10 3 6 8 10 11 10 2 0 4 -4
4 -10z m-4712 -29 c-7 -9 -13 -17 -14 -19 -1 -2 -1 8 0 21 0 15 6 23 14 20 10
-4 10 -9 0 -22z m2606 -20 c3 -5 -1 -11 -9 -14 -9 -4 -12 -1 -8 9 6 16 10 17
17 5z m-1 -46 c-3 -9 -8 -14 -10 -11 -3 3 -2 9 2 15 9 16 15 13 8 -4z m-5498
-73 c-3 -3 -11 0 -18 7 -9 10 -8 11 6 5 10 -3 15 -9 12 -12z m426 -5 c-10 -9
-11 -8 -5 6 3 10 9 15 12 12 3 -3 0 -11 -7 -18z m2413 7 c3 -8 2 -12 -4 -9 -6
3 -10 10 -10 16 0 14 7 11 14 -7z m4212 -24 c17 7 22 6 18 -4 -6 -17 -61 -16
-61 1 0 9 4 10 10 4 6 -6 19 -6 33 -1z m-4306 -150 c0 -5 -2 -10 -4 -10 -3 0
-8 5 -11 10 -3 6 -1 10 4 10 6 0 11 -4 11 -10z m-4 -52 c4 -7 3 -8 -4 -4 -7 4
-12 2 -12 -3 0 -6 -5 -11 -11 -11 -8 0 -8 5 1 15 15 18 17 18 26 3z m4 -28 c0
-5 -5 -10 -11 -10 -5 0 -7 5 -4 10 3 6 8 10 11 10 2 0 4 -4 4 -10z m2760 -34
c0 -3 -4 -8 -10 -11 -5 -3 -10 -1 -10 4 0 6 5 11 10 11 6 0 10 -2 10 -4z m0
-30 c0 -3 -4 -8 -10 -11 -5 -3 -10 -1 -10 4 0 6 5 11 10 11 6 0 10 -2 10 -4z
m-4113 -228 c-3 -8 -6 -5 -6 6 -1 11 2 17 5 13 3 -3 4 -12 1 -19z m3873 -230
c0 -4 -4 -8 -9 -8 -6 0 -12 4 -15 8 -3 5 1 9 9 9 8 0 15 -4 15 -9z m497 -124
c-3 -3 -12 -4 -19 -1 -8 3 -5 6 6 6 11 1 17 -2 13 -5z m-2397 -218 c0 -3 -4
-8 -10 -11 -5 -3 -10 -1 -10 4 0 6 5 11 10 11 6 0 10 -2 10 -4z m1001 -119
c-1 -12 -15 -9 -19 4 -3 6 1 10 8 8 6 -3 11 -8 11 -12z"/>
<path d="M6031 7274 c0 -11 3 -14 6 -6 3 7 2 16 -1 19 -3 4 -6 -2 -5 -13z"/>
<path d="M5967 7259 c7 -7 15 -10 18 -7 3 3 -2 9 -12 12 -14 6 -15 5 -6 -5z"/>
<path d="M8825 6880 c3 -5 11 -10 16 -10 6 0 7 5 4 10 -3 6 -11 10 -16 10 -6
0 -7 -4 -4 -10z"/>
<path d="M8604 6852 c3 -6 0 -12 -6 -15 -7 -2 -1 -4 14 -3 34 1 34 2 7 17 -13
6 -19 7 -15 1z"/>
<path d="M2235 7149 c-4 -6 -5 -12 -2 -15 2 -3 7 2 10 11 7 17 1 20 -8 4z"/>
<path d="M2835 3481 c-3 -5 -1 -12 5 -16 5 -3 10 1 10 9 0 18 -6 21 -15 7z"/>
<path d="M2835 3340 c-3 -5 1 -10 10 -10 9 0 13 5 10 10 -3 6 -8 10 -10 10 -2
0 -7 -4 -10 -10z"/>
<path d="M8771 2911 c-8 -5 -9 -11 -3 -15 5 -3 12 1 16 9 6 17 6 18 -13 6z"/>
<path d="M8520 2566 c0 -2 8 -10 18 -17 15 -13 16 -12 3 4 -13 16 -21 21 -21
13z"/>
<path d="M8286 2402 c-3 -5 1 -9 9 -9 8 0 15 4 15 9 0 4 -4 8 -9 8 -6 0 -12
-4 -15 -8z"/>
<path d="M4660 8801 c0 -6 4 -13 10 -16 6 -3 7 1 4 9 -7 18 -14 21 -14 7z"/>
<path d="M5510 8211 c0 -6 4 -13 10 -16 6 -3 7 1 4 9 -7 18 -14 21 -14 7z"/>
<path d="M2055 7689 c-4 -6 -5 -12 -2 -15 2 -3 7 2 10 11 7 17 1 20 -8 4z"/>
<path d="M7596 7542 c-3 -5 1 -9 9 -9 8 0 12 4 9 9 -3 4 -7 8 -9 8 -2 0 -6 -4
-9 -8z"/>
<path d="M8887 7463 c3 -7 6 -13 8 -13 2 0 5 6 8 13 3 8 -1 14 -8 14 -7 0 -11
-6 -8 -14z"/>
<path d="M9585 6729 c-4 -6 -4 -13 -1 -16 3 -4 6 -1 6 6 0 7 5 9 12 5 7 -4 8
-3 4 4 -9 15 -13 15 -21 1z"/>
<path d="M575 5520 c-3 -5 -2 -10 4 -10 5 0 13 5 16 10 3 6 2 10 -4 10 -5 0
-13 -4 -16 -10z"/>
<path d="M10176 5432 c-3 -5 1 -9 9 -9 8 0 12 4 9 9 -3 4 -7 8 -9 8 -2 0 -6
-4 -9 -8z"/>
<path d="M9675 5160 c3 -5 8 -10 11 -10 2 0 4 5 4 10 0 6 -5 10 -11 10 -5 0
-7 -4 -4 -10z"/>
<path d="M9560 5115 c0 -8 2 -15 4 -15 2 0 6 7 10 15 3 8 1 15 -4 15 -6 0 -10
-7 -10 -15z"/>
<path d="M1240 4281 c0 -6 4 -13 10 -16 6 -3 7 1 4 9 -7 18 -14 21 -14 7z"/>
<path d="M1165 4160 c-3 -5 -1 -10 4 -10 6 0 11 5 11 10 0 6 -2 10 -4 10 -3 0
-8 -4 -11 -10z"/>
<path d="M10255 3480 c-3 -6 1 -7 9 -4 18 7 21 14 7 14 -6 0 -13 -4 -16 -10z"/>
<path d="M5136 2782 c-3 -5 1 -9 9 -9 8 0 12 4 9 9 -3 4 -7 8 -9 8 -2 0 -6 -4
-9 -8z"/>
<path d="M7845 2543 c14 -16 17 -16 30 -2 14 14 14 16 1 16 -8 0 -13 -4 -10
-9 7 -11 -9 -10 -24 2 -7 5 -5 2 3 -7z"/>
<path d="M2195 2540 c-3 -6 1 -7 9 -4 18 7 21 14 7 14 -6 0 -13 -4 -16 -10z"/>
<path d="M8347 2196 c-4 -10 -1 -13 8 -9 8 3 12 9 9 14 -7 12 -11 11 -17 -5z"/>
<path d="M5963 1893 c-17 -6 -17 -20 0 -20 8 0 14 6 14 14 0 7 -1 13 -1 12 -1
0 -7 -3 -13 -6z"/>
<path d="M6120 1850 c-8 -5 -12 -12 -9 -15 4 -3 12 1 19 10 14 17 11 19 -10 5z"/>
</g>
</svg>
