<svg width="991" height="991" viewBox="0 0 991 991" fill="none" xmlns="http://www.w3.org/2000/svg">
<path d="M732.25 211.61L688.944 211.61C639.639 211.61 599.67 251.579 599.67 300.883L599.67 306.24L377.125 306.24L377.125 247.122C377.125 227.509 361.226 211.61 341.613 211.61V211.61C322 211.61 306.1 227.509 306.1 247.122L306.1 306.24L150.845 306.24L150.846 116.98L732.25 116.98L732.25 211.61Z" fill="#A9A7FF"/>
<path d="M732.25 22.3497L856.938 22.3497L856.938 495.5L732.25 495.5L495.5 495.5L495.5 490.143C495.5 440.839 535.469 400.87 584.774 400.87L642.976 400.87C692.281 400.87 732.25 360.901 732.25 311.596L732.25 306.24L599.67 306.24L599.67 300.883C599.67 251.579 639.639 211.61 688.944 211.61L732.25 211.61L732.25 116.98L732.25 22.3497Z" fill="#9BF7E6"/>
<path d="M856.938 495.5L856.938 22.3497L879.726 22.3497C929.031 22.3497 969 62.3188 969 111.623L969 495.5L856.938 495.5Z" fill="#8E8CD8"/>
<path d="M856.938 495.5L969 495.5L969 879.376C969 928.681 929.031 968.65 879.726 968.65L856.938 968.65L856.938 779.39L856.938 495.5Z" fill="#9BF7E6"/>
<path d="M665.96 779.39L547.585 779.39L547.585 774.033C547.585 724.729 587.554 684.76 636.858 684.76L732.25 684.76L732.25 590.13L732.25 495.5L856.938 495.5L856.938 779.39L665.96 779.39Z" fill="#A9A7FF"/>
<path d="M665.96 874.02L665.96 779.39L856.938 779.39L856.938 968.65L665.96 968.65L665.96 874.02Z" fill="#B8F79B"/>
<path d="M665.96 779.39L665.96 874.02L495.5 874.02L495.5 779.39L547.585 779.39L665.96 779.39Z" fill="#9BF7E6"/>
<path d="M547.585 779.39L495.5 779.39L495.5 684.76L495.5 590.13L732.25 590.13L732.25 684.76L636.858 684.76C587.554 684.76 547.585 724.729 547.585 774.033L547.585 779.39Z" fill="#4C4AC2"/>
<path d="M495.5 495.5L732.25 495.5L732.25 590.13L495.5 590.13L258.75 590.13L258.75 733.021L150.845 733.021L150.845 495.5L150.845 400.87L281.794 400.87L281.794 495.5L427.993 495.5L495.5 495.5Z" fill="#51B7A5"/>
<path d="M599.67 306.24L732.25 306.24L732.25 311.596C732.25 360.901 692.281 400.87 642.976 400.87L584.774 400.87C535.469 400.87 495.5 440.839 495.5 490.143L495.5 495.5L427.993 495.5L427.993 400.87L281.794 400.87L150.845 400.87L150.845 306.24L306.1 306.24L377.125 306.24L599.67 306.24Z" fill="#8E8CD8"/>
<path d="M427.993 400.87L427.993 495.5L281.794 495.5L281.794 400.87L427.993 400.87Z" fill="#8ACE6A"/>
<path d="M732.25 22.3497L732.25 116.98L150.846 116.98L150.846 22.3497L732.25 22.3497Z" fill="#8ACE6A"/>
<path d="M150.846 22.3497L150.846 116.98L150.845 306.24L150.845 400.87L150.845 495.5L22 495.5L22.0001 111.623C22.0001 62.3188 61.9692 22.3497 111.274 22.3497L150.846 22.3497Z" fill="#B8F79B"/>
<path d="M22 495.5L150.845 495.5L150.845 733.021L150.845 968.65L111.274 968.65C61.9691 968.65 22 928.681 22 879.376L22 495.5Z" fill="#6898DF"/>
<path d="M495.5 874.02L665.96 874.02L665.96 968.65L150.845 968.65L150.845 733.021L258.75 733.021L258.75 874.02L495.5 874.02Z" fill="#C5C4F1"/>
<path d="M495.5 779.39L495.5 874.02L258.75 874.02L258.75 733.021L258.75 590.13L495.5 590.13L495.5 684.76L424.44 684.76C398.309 684.76 377.125 705.943 377.125 732.075V732.075C377.125 758.206 398.309 779.39 424.44 779.39L495.5 779.39Z" fill="#89AFE7"/>
<path d="M495.5 779.39L424.44 779.39C398.309 779.39 377.125 758.206 377.125 732.075V732.075C377.125 705.943 398.309 684.76 424.44 684.76L495.5 684.76L495.5 779.39Z" fill="#8E8CD8"/>
<path d="M377.125 306.24L306.1 306.24L306.1 247.122C306.1 227.509 322 211.61 341.613 211.61V211.61C361.226 211.61 377.125 227.509 377.125 247.122L377.125 306.24Z" fill="#6898DF"/>
</svg>
