<svg width="991" height="991" viewBox="0 0 991 991" fill="none" xmlns="http://www.w3.org/2000/svg">
<path d="M743.25 198.053L693.784 198.053C644.479 198.053 604.51 238.023 604.51 287.327L604.51 297.08L371.625 297.08L371.625 235.216C371.625 214.692 354.987 198.053 334.463 198.053V198.053C313.938 198.053 297.3 214.692 297.3 235.216L297.3 297.08L134.832 297.08L134.832 99.0267L743.25 99.0267L743.25 198.053Z" fill="#A9A7FF"/>
<path d="M743.25 6.06258e-06L873.732 1.36784e-05L873.732 495.134L743.25 495.134L495.5 495.134L495.5 485.381C495.5 436.076 535.469 396.107 584.774 396.107L653.976 396.107C703.281 396.107 743.25 356.138 743.25 306.833L743.25 297.08L604.51 297.08L604.51 287.327C604.51 238.023 644.479 198.053 693.784 198.053L743.25 198.053L743.25 99.0267L743.25 6.06258e-06Z" fill="#9BF7E6"/>
<path d="M873.732 495.134L873.732 1.36784e-05L901.726 1.54964e-05C951.031 1.86984e-05 991 39.9692 991 89.2736L991 495.134L873.732 495.134Z" fill="#8E8CD8"/>
<path d="M873.732 495.134L991 495.134L991 900.994C991 950.298 951.031 990.267 901.726 990.267L873.732 990.267L873.732 792.214L873.732 495.134Z" fill="#9BF7E6"/>
<path d="M673.88 792.214L550.005 792.214L550.005 782.461C550.005 733.156 589.974 693.187 639.278 693.187L743.25 693.187L743.25 594.16L743.25 495.134L873.732 495.134L873.732 792.214L673.88 792.214Z" fill="#A9A7FF"/>
<path d="M673.88 891.241L673.88 792.214L873.732 792.214L873.732 990.267L673.88 990.267L673.88 891.241Z" fill="#B8F79B"/>
<path d="M673.88 792.214L673.88 891.241L495.5 891.241L495.5 792.214L550.005 792.214L673.88 792.214Z" fill="#9BF7E6"/>
<path d="M550.005 792.214L495.5 792.214L495.5 693.187L495.5 594.16L743.25 594.16L743.25 693.187L639.278 693.187C589.974 693.187 550.005 733.156 550.005 782.461L550.005 792.214Z" fill="#4C4AC2"/>
<path d="M495.5 495.134L743.25 495.134L743.25 594.16L495.5 594.16L247.75 594.16L247.75 743.691L134.832 743.691L134.832 495.134L134.832 396.107L271.864 396.107L271.864 495.134L424.857 495.134L495.5 495.134Z" fill="#51B7A5"/>
<path d="M604.51 297.08L743.25 297.08L743.25 306.833C743.25 356.138 703.281 396.107 653.976 396.107L584.774 396.107C535.469 396.107 495.5 436.076 495.5 485.381L495.5 495.134L424.857 495.134L424.857 396.107L271.864 396.107L134.832 396.107L134.832 297.08L297.3 297.08L371.625 297.08L604.51 297.08Z" fill="#8E8CD8"/>
<path d="M424.857 396.107L424.857 495.134L271.864 495.134L271.864 396.107L424.857 396.107Z" fill="#8ACE6A"/>
<path d="M743.25 6.06258e-06L743.25 99.0267L134.832 99.0267L134.832 -5.2637e-05L743.25 6.06258e-06Z" fill="#8ACE6A"/>
<path d="M134.832 -5.2637e-05L134.832 99.0267L134.832 297.08L134.832 396.107L134.832 495.134L9.67583e-05 495.134L0.000147212 89.2735C0.000153341 39.9691 39.9692 -4.34873e-05 89.2737 -4.82428e-05L134.832 -5.2637e-05Z" fill="#B8F79B"/>
<path d="M9.67583e-05 495.134L134.832 495.134L134.832 743.691L134.832 990.267L89.2736 990.267C39.9692 990.267 4.01753e-05 950.298 4.63045e-05 900.994L9.67583e-05 495.134Z" fill="#6898DF"/>
<path d="M495.5 891.241L673.88 891.241L673.88 990.267L134.832 990.267L134.832 743.691L247.75 743.691L247.75 891.241L495.5 891.241Z" fill="#C5C4F1"/>
<path d="M495.5 792.214L495.5 891.241L247.75 891.241L247.75 743.691L247.75 594.16L495.5 594.16L495.5 693.187L421.138 693.187C393.793 693.187 371.625 715.355 371.625 742.7V742.7C371.625 770.046 393.793 792.214 421.138 792.214L495.5 792.214Z" fill="#89AFE7"/>
<path d="M495.5 792.214L421.138 792.214C393.793 792.214 371.625 770.046 371.625 742.7V742.7C371.625 715.355 393.793 693.187 421.138 693.187L495.5 693.187L495.5 792.214Z" fill="#8E8CD8"/>
<path d="M371.625 297.08L297.3 297.08L297.3 235.216C297.3 214.692 313.938 198.053 334.463 198.053V198.053C354.987 198.053 371.625 214.692 371.625 235.216L371.625 297.08Z" fill="#6898DF"/>
</svg>
